<?xml version="1.0" standalone="no"?>
<!DOCTYPE svg PUBLIC "-//W3C//DTD SVG 20010904//EN"
 "http://www.w3.org/TR/2001/REC-SVG-20010904/DTD/svg10.dtd">
<svg version="1.0" xmlns="http://www.w3.org/2000/svg"
 width="5000.000000pt" height="5000.000000pt" viewBox="0 0 5000.000000 5000.000000"
 preserveAspectRatio="xMidYMid meet">

<g transform="translate(0.000000,5000.000000) scale(0.100000,-0.100000)"
fill="#000000" stroke="none">
<path d="M34253 45228 c-381 -475 -902 -1217 -1410 -2008 -246 -384 -736
-1170 -732 -1174 4 -4 471 8 847 22 111 4 202 3 202 -1 0 -5 -26 -56 -59 -115
-483 -880 -925 -1819 -1177 -2502 -36 -96 -69 -185 -74 -198 -17 -39 2 -19
137 145 584 713 1204 1627 2038 3008 160 265 181 305 162 305 -31 0 -818 -38
-956 -46 l-114 -7 45 84 c188 347 567 1102 711 1414 188 410 287 640 419 970
80 201 108 275 103 275 -2 0 -66 -78 -142 -172z"/>
<path d="M39363 41511 c-705 -470 -1469 -1064 -2602 -2021 -43 -36 -146 -123
-229 -193 -84 -70 -152 -131 -152 -135 0 -8 120 -44 660 -199 184 -53 337 -97
339 -99 3 -3 -108 -113 -245 -247 -782 -760 -1306 -1326 -1757 -1900 -64 -82
-117 -150 -117 -153 0 -13 392 245 655 431 608 430 1246 932 1955 1541 584
501 703 607 688 615 -12 6 -441 124 -852 233 -92 25 -170 47 -172 48 -2 2 205
213 459 468 254 256 500 506 547 555 326 345 649 710 889 1005 158 194 155
190 147 190 -3 0 -99 -62 -213 -139z"/>
<path d="M25605 40044 c-874 -51 -1602 -242 -2300 -603 -871 -451 -1686 -1150
-2300 -1971 -535 -717 -947 -1555 -1210 -2465 -193 -667 -306 -1361 -346
-2120 -13 -253 -7 -1195 10 -1455 19 -282 51 -656 76 -880 l24 -215 -62 -85
c-297 -411 -704 -933 -966 -1240 -336 -392 -576 -654 -893 -976 -218 -221
-264 -263 -300 -273 -344 -102 -806 -326 -1158 -561 -63 -42 -1352 -850 -2865
-1795 -1512 -944 -2795 -1747 -2850 -1783 -628 -409 -1190 -1011 -1579 -1690
-369 -645 -592 -1337 -687 -2137 -27 -226 -38 -788 -20 -1025 61 -816 259
-1550 611 -2265 318 -646 685 -1159 1185 -1661 479 -480 991 -847 1590 -1140
611 -299 1211 -473 1895 -550 190 -22 678 -30 881 -15 774 57 1432 253 2119
633 85 47 258 141 384 208 l229 122 36 -38 c19 -22 130 -138 245 -259 116
-121 257 -269 315 -330 57 -60 147 -155 200 -210 53 -55 181 -190 286 -300
104 -110 244 -256 310 -325 66 -69 165 -172 219 -230 55 -58 145 -152 200
-210 56 -58 182 -190 281 -295 171 -181 251 -264 515 -540 119 -123 197 -205
525 -550 181 -190 249 -261 515 -540 224 -234 475 -498 499 -524 13 -14 73
-78 134 -141 141 -146 223 -233 482 -505 115 -121 250 -263 301 -315 50 -52
113 -119 140 -149 197 -218 406 -359 666 -447 405 -138 873 -110 1270 74 92
43 1541 1006 1630 1083 141 122 252 306 566 934 172 345 241 492 279 602 26
74 27 88 28 263 0 165 -3 194 -23 265 -49 166 -161 357 -268 455 -74 68 -154
121 -893 594 -409 262 -811 524 -892 583 -307 218 -556 430 -839 713 -243 242
-288 293 -780 900 -38 47 -183 225 -321 395 -139 171 -289 355 -334 410 -290
357 -455 560 -569 700 -71 88 -158 195 -193 237 -35 43 -63 79 -63 82 0 10
309 175 660 353 422 213 719 415 1048 712 41 36 81 69 90 73 30 13 395 97 644
147 862 175 1850 287 2794 317 l212 7 188 -125 c511 -339 988 -615 1544 -892
1121 -558 2105 -867 3090 -971 1414 -148 2803 185 4216 1011 1296 757 2211
2003 2689 3659 191 661 297 1295 357 2130 17 238 17 1223 0 1475 -42 628 -107
1170 -207 1730 -371 2074 -1171 4188 -2348 6200 -862 1473 -1888 2811 -3032
3955 -436 436 -744 718 -1165 1066 -2136 1765 -4436 2733 -6455 2717 -115 -1
-232 -3 -260 -4z m2520 -854 c13 -5 14 -9 5 -9 -8 0 -24 4 -35 9 -13 5 -14 9
-5 9 8 0 24 -4 35 -9z m231 -69 c793 -250 1493 -563 2209 -989 739 -440 1533
-1050 2274 -1747 176 -164 571 -558 714 -710 77 -82 168 -179 202 -215 156
-167 434 -484 626 -715 976 -1174 1741 -2346 2432 -3725 897 -1789 1465 -3496
1726 -5190 125 -808 168 -1374 158 -2050 -8 -484 -36 -847 -103 -1295 -42
-282 -148 -832 -128 -665 3 25 16 114 29 199 141 896 163 1875 64 2871 -243
2458 -1291 5298 -2879 7805 -835 1319 -1785 2489 -2882 3550 -856 829 -1691
1477 -2553 1982 -604 353 -1294 672 -1910 882 -160 55 -196 69 -179 70 6 1 96
-26 200 -58z m-4826 -785 c0 -2 -30 -26 -67 -52 -95 -68 -361 -282 -468 -377
-132 -117 -405 -395 -519 -527 -1197 -1394 -1718 -3601 -1455 -6165 160 -1566
642 -3278 1386 -4925 669 -1481 1528 -2861 2592 -4165 63 -77 131 -158 150
-181 20 -22 72 -83 116 -134 627 -734 1373 -1457 2104 -2039 1238 -986 2584
-1699 3864 -2046 1046 -283 2032 -330 2957 -140 381 79 773 207 1097 360 217
102 124 47 -157 -93 -1067 -533 -2130 -690 -3410 -506 -729 104 -1587 364
-2322 703 -38 17 -98 45 -135 62 -163 75 -522 259 -721 371 -745 416 -1470
929 -2167 1532 -38 34 -72 63 -75 66 -3 3 -45 41 -95 85 -415 369 -901 859
-1295 1305 -871 986 -1674 2134 -2305 3295 -53 99 -112 207 -130 240 -65 119
-335 665 -435 880 -750 1611 -1221 3245 -1395 4835 -59 549 -80 982 -72 1535
6 405 12 528 43 860 98 1081 370 2082 799 2935 132 263 216 408 380 655 434
651 970 1176 1577 1542 158 96 158 96 158 89z m4530 -278 c476 -162 999 -399
1503 -680 763 -426 1589 -1025 2302 -1672 320 -290 759 -728 1095 -1091 149
-162 456 -518 636 -740 1241 -1528 2249 -3277 2961 -5135 362 -947 660 -2034
817 -2985 121 -731 170 -1300 170 -1995 0 -431 -9 -632 -45 -987 -138 -1379
-584 -2539 -1290 -3358 -629 -730 -1471 -1197 -2425 -1344 -469 -73 -1004 -71
-1519 5 -1058 156 -2174 606 -3315 1337 -233 150 -696 474 -688 482 2 2 480
-23 1063 -55 583 -32 1061 -57 1062 -57 0 1 -119 39 -265 85 -435 136 -597
187 -787 247 -99 31 -335 106 -525 165 -746 234 -1180 371 -1280 404 l-105 34
55 1 c553 11 4677 81 4759 81 63 0 112 2 110 4 -4 4 -337 51 -1919 272 -217
30 -618 86 -890 124 -272 38 -999 139 -1615 225 -616 85 -1133 159 -1149 163
-22 5 114 30 500 90 291 45 718 111 949 147 231 36 607 94 835 130 228 35 663
103 965 150 303 47 659 102 793 123 133 20 242 39 242 42 0 3 -892 40 -1982
83 -1091 43 -1995 81 -2009 85 -25 6 -8 23 224 212 137 113 370 303 516 423
146 120 334 274 416 342 83 68 207 170 276 226 69 57 284 235 479 394 194 160
457 376 584 480 128 105 367 301 532 437 165 135 345 291 400 345 231 229 370
524 431 913 27 173 24 535 -6 730 -58 383 -162 711 -341 1075 -176 359 -374
659 -615 930 -33 37 -61 71 -63 75 -1 3 79 76 179 161 334 283 404 343 598
509 107 91 213 181 236 200 23 19 103 87 177 150 162 139 370 316 659 562 118
100 408 347 644 548 601 511 847 721 942 801 101 85 112 101 42 62 -30 -17
-277 -152 -549 -301 -837 -455 -2156 -1174 -2978 -1623 l-782 -427 -108 48
c-113 50 -257 101 -348 122 -30 7 -54 17 -53 23 0 5 94 92 207 193 114 100
225 199 248 220 86 78 510 458 739 662 132 118 242 217 245 220 3 3 48 44 100
90 53 47 228 204 390 349 162 145 331 296 374 335 44 39 84 76 90 81 6 6 94
84 196 175 102 91 208 186 235 211 28 25 93 84 145 130 52 46 97 86 100 89 3
3 48 43 100 89 52 46 118 105 145 130 28 25 88 80 135 122 47 41 180 160 295
264 205 184 317 284 440 394 33 29 68 61 78 71 17 16 13 24 -99 171 -180 235
-578 729 -588 729 -5 0 -51 -43 -176 -164 -64 -61 -217 -208 -340 -326 -124
-118 -274 -262 -334 -320 -61 -58 -117 -112 -126 -120 -9 -8 -70 -67 -136
-130 -66 -63 -209 -200 -319 -305 -110 -104 -260 -249 -335 -320 -74 -72 -184
-178 -245 -235 -60 -57 -159 -152 -220 -210 -182 -176 -334 -321 -450 -431
-60 -57 -173 -165 -250 -239 -77 -75 -189 -183 -250 -240 -60 -58 -112 -107
-115 -110 -3 -3 -52 -50 -110 -104 -58 -55 -168 -161 -245 -235 -368 -355
-499 -478 -474 -446 44 56 522 662 584 740 39 50 231 293 427 540 195 248 461
585 592 750 131 165 351 444 490 620 139 176 349 442 466 590 118 149 315 398
439 555 123 157 307 390 409 518 l184 233 -88 92 c-692 720 -1268 1243 -1919
1741 -226 173 -293 222 -298 215 -6 -7 -297 -349 -378 -444 -42 -49 -159 -187
-260 -306 -101 -119 -308 -361 -459 -539 -151 -178 -288 -339 -305 -359 -16
-20 -109 -128 -205 -241 -96 -114 -249 -293 -340 -400 -91 -107 -232 -273
-314 -370 -83 -96 -184 -215 -225 -264 -42 -49 -107 -126 -146 -171 -38 -45
-165 -194 -282 -331 -848 -998 -875 -1029 -836 -974 34 50 391 551 1229 1730
1056 1483 2057 2891 2086 2932 l18 27 -87 54 c-204 126 -603 352 -848 482 -60
32 -112 60 -115 62 -11 10 62 -12 230 -69z m-2399 -355 c-96 -241 -480 -1036
-716 -1483 -851 -1611 -1559 -2809 -2425 -4105 -320 -478 -706 -1023 -717
-1012 -15 16 515 1122 724 1512 33 61 86 160 118 220 824 1561 1712 3036 2603
4325 174 251 420 590 429 590 1 0 -6 -21 -16 -47z m-2111 -819 c-176 -652
-464 -1371 -926 -2312 -216 -441 -365 -713 -567 -1037 -91 -147 -293 -445
-301 -445 -14 0 128 484 212 725 306 874 890 2107 1326 2800 102 162 286 428
292 422 2 -2 -14 -71 -36 -153z m4910 -7729 c389 -107 794 -406 1123 -830 603
-777 838 -1776 554 -2355 -41 -85 -64 -118 -122 -175 -113 -114 -230 -159
-405 -158 -162 0 -306 38 -496 128 -718 340 -1356 1247 -1515 2152 -26 151
-36 413 -20 550 43 368 198 615 434 692 90 29 100 30 232 26 89 -3 144 -11
215 -30z m-8661 -230 c201 -960 534 -2029 925 -2969 206 -495 325 -753 576
-1251 782 -1547 1819 -3030 2995 -4285 38 -41 201 -208 362 -370 161 -162 291
-296 289 -297 -7 -8 -286 119 -481 217 -240 122 -417 225 -660 385 -547 361
-1015 765 -1609 1390 -43 45 -40 39 27 -55 293 -412 612 -787 981 -1155 505
-504 1035 -910 1549 -1189 48 -27 86 -50 84 -52 -6 -6 -347 92 -511 147 -282
95 -627 240 -856 361 -706 372 -1294 815 -1920 1446 -107 109 -190 190 -184
182 433 -595 942 -1141 1459 -1566 342 -282 736 -546 1102 -740 50 -27 90 -50
89 -52 -5 -5 -177 36 -348 82 -1063 289 -2028 871 -2925 1762 -90 89 -163 160
-163 159 0 -16 317 -406 479 -590 114 -129 429 -449 551 -560 451 -409 952
-758 1465 -1019 170 -87 168 -87 -80 -34 -827 176 -1609 541 -2330 1085 -287
217 -450 359 -799 692 l-79 76 79 -100 c685 -876 1531 -1570 2404 -1971 82
-38 141 -70 132 -72 -23 -4 -282 41 -429 74 -1034 230 -1992 771 -2882 1628
-101 98 -97 88 27 -63 167 -203 320 -370 523 -572 573 -571 1187 -992 1867
-1280 53 -23 99 -43 102 -46 7 -7 -99 5 -255 28 -1058 160 -2054 663 -2963
1498 -133 122 -183 162 -136 109 11 -13 58 -68 104 -123 657 -782 1453 -1379
2295 -1720 77 -31 142 -58 144 -61 12 -12 -418 42 -574 72 -640 123 -1264 383
-1850 769 -219 144 -561 407 -720 553 -108 99 -218 194 -199 172 218 -263 463
-518 744 -774 249 -227 640 -509 948 -683 184 -104 448 -230 632 -303 85 -33
169 -67 185 -75 l30 -14 -40 4 c-22 2 -85 7 -140 10 -707 43 -1521 322 -2207
758 -294 187 -648 460 -903 697 l-59 55 44 -54 c155 -189 460 -501 661 -677
537 -468 1147 -830 1779 -1055 149 -53 143 -59 -35 -29 -1143 192 -2190 803
-2964 1730 -675 808 -1082 1756 -1208 2815 -14 119 -18 229 -18 535 0 390 4
456 45 735 115 788 433 1528 914 2129 62 77 88 100 206 179 555 371 1152 844
1615 1277 38 36 106 99 150 140 130 121 600 594 741 745 369 396 737 826 1064
1243 57 73 107 129 111 125 3 -5 25 -98 48 -208z m7121 -187 c0 -2 -7 -39 -16
-83 -25 -130 -30 -508 -10 -685 101 -867 578 -1771 1258 -2382 l97 -87 -617
-387 c-339 -213 -1098 -688 -1686 -1057 l-1068 -670 -24 29 c-13 16 -23 34
-21 41 1 6 218 171 482 365 264 195 885 652 1380 1017 495 365 907 670 915
678 13 12 12 13 -10 5 -14 -5 -77 -33 -140 -62 -63 -29 -272 -123 -465 -210
-192 -87 -471 -213 -620 -280 -148 -67 -333 -150 -410 -185 -77 -35 -216 -98
-310 -140 -212 -96 -431 -195 -555 -250 -80 -36 -208 -94 -577 -261 -29 -13
-53 -22 -53 -19 0 2 89 75 198 162 333 266 612 487 977 777 193 153 357 285
365 293 9 8 -14 3 -55 -13 -38 -14 -167 -61 -285 -104 -118 -43 -350 -128
-515 -188 -648 -239 -1097 -402 -1103 -402 -4 0 -18 19 -31 41 l-23 42 26 21
c14 11 260 208 545 436 285 228 517 417 516 418 -3 3 -688 -178 -1298 -343
l-87 -24 -26 50 c-20 40 -23 54 -13 65 6 8 66 58 132 112 66 53 172 140 236
192 64 52 199 162 299 243 100 82 182 151 182 153 0 3 -12 3 -27 0 -16 -3
-260 -51 -543 -106 -283 -55 -525 -102 -537 -105 -19 -5 -27 3 -52 54 l-30 58
390 313 c214 172 388 315 385 317 -4 4 -71 -6 -683 -102 -156 -25 -293 -45
-306 -45 -19 0 -29 11 -50 60 l-26 60 202 163 c111 89 278 223 370 297 92 74
164 136 159 138 -4 1 -192 -27 -417 -62 -226 -36 -433 -68 -462 -72 l-51 -6
-20 38 c-11 22 -22 49 -26 60 -8 25 -25 16 254 124 204 79 924 360 1150 448
472 185 1325 518 1390 542 41 16 131 51 200 78 69 27 256 100 415 162 160 62
385 150 500 196 198 78 225 88 225 82z m-11631 -2927 c-273 -382 -836 -1292
-1050 -1696 -214 -407 -397 -988 -478 -1525 -66 -438 -78 -936 -36 -1505 7
-93 -49 188 -79 400 -41 285 -56 469 -63 770 -14 641 69 1217 257 1794 17 52
29 95 28 97 -8 7 -162 -266 -248 -441 -109 -222 -182 -402 -259 -636 -230
-707 -302 -1415 -236 -2339 l5 -65 -15 60 c-7 33 -28 141 -44 240 -121 717
-119 1418 5 2075 31 167 110 476 162 633 21 64 38 117 36 117 -11 0 -200 -333
-264 -465 -325 -677 -489 -1397 -507 -2220 -5 -241 -2 -347 22 -725 7 -106 -6
-53 -50 205 -142 845 -121 1619 65 2370 27 110 69 261 94 335 24 74 43 136 42
137 -1 1 -40 -62 -86 -140 -368 -621 -586 -1318 -667 -2137 -28 -289 -21
-1028 12 -1200 4 -18 3 -21 -4 -10 -10 18 -52 248 -80 440 -112 764 -82 1522
85 2195 33 133 110 397 129 442 8 20 14 38 12 40 -8 8 -176 -286 -252 -442
-81 -166 -182 -410 -243 -590 -230 -673 -320 -1449 -261 -2257 6 -81 9 -153 7
-159 -6 -17 -44 187 -73 391 -107 735 -90 1413 50 2067 34 154 121 475 160
583 9 25 12 40 6 35 -26 -28 -163 -272 -241 -430 -287 -580 -454 -1210 -511
-1925 -21 -263 -13 -832 16 -1095 9 -83 -24 69 -55 250 -64 386 -80 561 -87
962 -7 441 14 723 83 1103 31 171 107 475 162 648 22 67 38 122 36 122 -9 0
-173 -288 -234 -409 -268 -537 -429 -1106 -506 -1786 -31 -271 -30 -862 1
-1245 7 -88 -51 206 -79 400 -43 295 -57 472 -63 795 -8 423 15 726 83 1105
32 175 108 479 163 650 22 68 39 125 37 127 -1 1 -40 -62 -86 -140 -382 -643
-611 -1415 -670 -2247 -12 -183 -13 -630 0 -820 5 -80 12 -176 14 -215 5 -60
1 -51 -24 71 -132 645 -155 1377 -64 2019 39 273 117 601 209 880 74 224 140
386 249 611 85 174 100 198 167 269 273 288 557 527 830 698 875 548 4395
2747 4398 2747 2 0 -3 -9 -10 -19z m23168 -4073 c-3 -7 -5 -2 -5 12 0 14 2 19
5 13 2 -7 2 -19 0 -25z m-27120 -2170 c-3 -8 -6 -5 -6 6 -1 11 2 17 5 13 3 -3
4 -12 1 -19z m10193 -3719 c370 -413 580 -659 1185 -1384 535 -641 662 -784
954 -1075 452 -449 802 -713 1864 -1401 292 -190 399 -270 517 -389 140 -140
235 -294 274 -446 25 -97 19 -105 -22 -28 -115 215 -281 377 -567 553 -60 37
-222 134 -360 216 -974 578 -1381 878 -1870 1377 -456 465 -675 736 -1506
1863 -294 398 -629 863 -664 920 l-18 30 29 -31 c16 -18 99 -110 184 -205z
m-1435 -415 c88 -108 192 -236 230 -283 78 -94 226 -276 530 -651 110 -135
413 -508 675 -830 262 -322 523 -643 581 -714 201 -249 396 -482 478 -571 208
-225 498 -496 742 -691 279 -223 368 -283 1451 -974 314 -201 591 -384 615
-408 62 -60 86 -119 87 -212 1 -92 -26 -158 -87 -217 -23 -22 -359 -252 -747
-511 -761 -508 -770 -513 -960 -552 -136 -28 -340 -24 -465 9 -152 40 -305
129 -394 227 -48 54 -159 171 -491 519 -52 55 -140 147 -195 205 -55 58 -154
161 -220 230 -66 69 -203 213 -305 320 -102 107 -232 244 -290 305 -58 60
-151 157 -205 215 -55 58 -143 150 -195 205 -53 55 -146 152 -206 215 -60 63
-152 160 -205 215 -137 143 -266 279 -509 535 -118 124 -266 279 -330 345
-154 160 -312 326 -439 460 -57 61 -149 157 -205 215 -56 58 -148 155 -205
215 -58 61 -146 153 -196 205 -50 52 -135 142 -190 200 -88 92 -181 191 -605
635 -52 54 -103 108 -114 118 -23 24 -16 32 71 77 l62 32 63 -49 c75 -59 76
-60 623 -478 237 -180 439 -335 449 -344 15 -13 14 -7 -6 29 -14 25 -121 218
-238 430 -117 212 -245 444 -285 515 -40 72 -77 140 -83 151 -11 20 -4 25 91
74 l103 53 558 -427 c307 -235 556 -420 553 -412 -9 23 -588 1070 -598 1080
-20 22 -4 35 99 88 l107 55 525 -403 c289 -222 535 -411 547 -419 17 -12 13 1
-21 63 -24 42 -150 271 -281 507 -130 237 -248 449 -261 472 l-24 42 72 40
c40 23 75 41 78 41 3 0 78 -88 165 -196z"/>
<path d="M27880 28165 c0 -298 77 -600 234 -920 319 -648 869 -1135 1313
-1162 116 -7 198 8 286 54 79 42 150 115 189 194 30 62 58 162 58 209 l0 33
-60 -57 c-153 -146 -351 -166 -601 -61 -359 151 -756 557 -1073 1097 -79 134
-213 407 -276 563 -30 72 -57 134 -62 140 -4 5 -8 -36 -8 -90z"/>
<path d="M43660 36328 c-19 -6 -150 -44 -290 -84 -737 -210 -1846 -613 -2960
-1074 -343 -142 -467 -193 -489 -201 l-23 -9 23 -19 c19 -14 740 -503 828
-561 23 -15 11 -22 -360 -207 -913 -457 -1574 -827 -2152 -1206 -109 -71 -196
-131 -194 -133 9 -10 470 119 810 226 835 263 1594 551 2732 1035 165 70 321
137 348 148 26 11 47 23 47 27 0 7 -398 270 -763 505 l-137 88 470 238 c259
131 494 251 523 267 28 16 93 51 142 77 398 211 855 476 1241 720 280 177 295
190 204 163z"/>
<path d="M45905 30499 c-857 -44 -2094 -184 -3440 -392 l-79 -12 94 -105 c178
-201 236 -265 423 -471 103 -114 187 -210 187 -212 0 -2 -28 -10 -62 -16 -150
-29 -679 -149 -973 -221 -759 -186 -1333 -352 -1810 -524 l-170 -61 140 -3
c379 -9 1280 55 2025 144 484 57 1989 279 2005 296 6 5 -181 209 -584 635
-138 146 -150 163 -129 168 13 3 124 27 248 54 703 154 1367 323 1895 483 161
48 614 196 685 222 l65 25 -180 -1 c-99 -1 -252 -5 -340 -9z"/>
<path d="M43330 25044 c0 -7 258 -512 270 -529 4 -5 44 -82 90 -170 45 -88 92
-175 102 -193 11 -18 18 -36 14 -39 -3 -3 -148 -1 -323 6 -1061 38 -2209 15
-2758 -56 l-50 -6 70 -19 c637 -164 1591 -327 2585 -442 443 -51 1404 -146
1479 -146 l32 0 -40 73 c-243 449 -465 855 -475 866 -9 12 18 13 194 7 1039
-35 1919 -24 2678 35 83 7 150 14 148 16 -13 13 -570 132 -876 187 -754 136
-1501 238 -2565 351 -286 30 -532 57 -547 60 -16 2 -28 2 -28 -1z"/>
</g>
</svg>
