<svg width="16" height="15" viewBox="0 0 16 15" fill="none" xmlns="http://www.w3.org/2000/svg">
<path d="M12.6667 0H3.33333C2.4496 0.00105857 1.60237 0.352588 0.97748 0.97748C0.352588 1.60237 0.00105857 2.4496 0 3.33333L0 11.3333C0.00105857 12.2171 0.352588 13.0643 0.97748 13.6892C1.60237 14.3141 2.4496 14.6656 3.33333 14.6667H12.6667C13.5504 14.6656 14.3976 14.3141 15.0225 13.6892C15.6474 13.0643 15.9989 12.2171 16 11.3333V3.33333C15.9989 2.4496 15.6474 1.60237 15.0225 0.97748C14.3976 0.352588 13.5504 0.00105857 12.6667 0ZM3.33333 1.33333H12.6667C13.0659 1.33412 13.4557 1.45434 13.786 1.67854C14.1163 1.90273 14.3719 2.22063 14.52 2.59133L9.41467 7.69733C9.03895 8.07154 8.53028 8.28165 8 8.28165C7.46972 8.28165 6.96105 8.07154 6.58533 7.69733L1.48 2.59133C1.6281 2.22063 1.88374 1.90273 2.21403 1.67854C2.54432 1.45434 2.93414 1.33412 3.33333 1.33333ZM12.6667 13.3333H3.33333C2.8029 13.3333 2.29419 13.1226 1.91912 12.7475C1.54405 12.3725 1.33333 11.8638 1.33333 11.3333V4.33333L5.64267 8.64C6.26842 9.26417 7.11617 9.61469 8 9.61469C8.88383 9.61469 9.73158 9.26417 10.3573 8.64L14.6667 4.33333V11.3333C14.6667 11.8638 14.456 12.3725 14.0809 12.7475C13.7058 13.1226 13.1971 13.3333 12.6667 13.3333Z" fill="black"/>
</svg>
