<svg width="16" height="16" viewBox="0 0 16 16" fill="none" xmlns="http://www.w3.org/2000/svg">
<path d="M8.64062 0.666694C8.64062 0.489883 8.71085 0.320313 8.83588 0.195289C8.9609 0.070265 9.13047 2.70476e-05 9.30728 2.70476e-05C11.0748 0.00196811 12.7694 0.70497 14.0192 1.95479C15.269 3.20461 15.972 4.89918 15.9739 6.66669C15.9739 6.84351 15.9037 7.01307 15.7787 7.1381C15.6537 7.26312 15.4841 7.33336 15.3073 7.33336C15.1305 7.33336 14.9609 7.26312 14.8359 7.1381C14.7109 7.01307 14.6406 6.84351 14.6406 6.66669C14.639 5.25269 14.0766 3.89706 13.0768 2.89721C12.0769 1.89736 10.7213 1.33495 9.30728 1.33336C9.13047 1.33336 8.9609 1.26312 8.83588 1.1381C8.71085 1.01307 8.64062 0.843505 8.64062 0.666694ZM9.30728 4.00003C10.0145 4.00003 10.6928 4.28098 11.1929 4.78108C11.693 5.28117 11.9739 5.95945 11.9739 6.66669C11.9739 6.84351 12.0442 7.01307 12.1692 7.1381C12.2942 7.26312 12.4638 7.33336 12.6406 7.33336C12.8174 7.33336 12.987 7.26312 13.112 7.1381C13.237 7.01307 13.3073 6.84351 13.3073 6.66669C13.3062 5.60615 12.8845 4.58935 12.1345 3.83944C11.3846 3.08952 10.3678 2.66775 9.30728 2.66669C9.13047 2.66669 8.9609 2.73693 8.83588 2.86196C8.71085 2.98698 8.64062 3.15655 8.64062 3.33336C8.64062 3.51017 8.71085 3.67974 8.83588 3.80477C8.9609 3.92979 9.13047 4.00003 9.30728 4.00003ZM15.3693 11.1594C15.7556 11.5468 15.9726 12.0716 15.9726 12.6187C15.9726 13.1658 15.7556 13.6906 15.3693 14.078L14.7626 14.7774C9.30262 20.0047 -3.98405 6.72136 1.16262 1.24403L1.92928 0.57736C2.31713 0.201812 2.83724 -0.00594023 3.37708 -0.000949725C3.91693 0.00404078 4.43311 0.221373 4.81395 0.604027C4.83462 0.624694 6.06995 2.22936 6.06995 2.22936C6.4365 2.61445 6.64055 3.12598 6.63968 3.65763C6.63881 4.18928 6.43309 4.70014 6.06528 5.08403L5.29328 6.05469C5.72051 7.09277 6.34866 8.03619 7.14162 8.83076C7.93459 9.62532 8.87674 10.2554 9.91395 10.6847L10.8906 9.90803C11.2746 9.5405 11.7853 9.33502 12.3168 9.33428C12.8483 9.33354 13.3596 9.53758 13.7446 9.90403C13.7446 9.90403 15.3486 11.1387 15.3693 11.1594ZM14.4519 12.1287C14.4519 12.1287 12.8566 10.9014 12.8359 10.8807C12.6986 10.7445 12.513 10.6681 12.3196 10.6681C12.1262 10.6681 11.9406 10.7445 11.8033 10.8807C11.7853 10.8994 10.4406 11.9707 10.4406 11.9707C10.35 12.0428 10.2422 12.0901 10.1277 12.1079C10.0133 12.1256 9.89617 12.1133 9.78795 12.072C8.44426 11.5717 7.22377 10.7885 6.20917 9.77541C5.19457 8.76231 4.40955 7.54298 3.90728 6.20003C3.86275 6.09033 3.84823 5.97075 3.86522 5.85359C3.88221 5.73642 3.93009 5.62589 4.00395 5.53336C4.00395 5.53336 5.07528 4.18803 5.09328 4.17069C5.22946 4.03335 5.30587 3.84777 5.30587 3.65436C5.30587 3.46095 5.22946 3.27537 5.09328 3.13803C5.07262 3.11803 3.84528 1.52136 3.84528 1.52136C3.70588 1.39637 3.52395 1.32942 3.33678 1.33426C3.14961 1.33909 2.97138 1.41534 2.83862 1.54736L2.07195 2.21403C-1.68938 6.73669 9.82462 17.612 13.7879 13.8667L14.3953 13.1667C14.5376 13.0349 14.6231 12.8529 14.6337 12.6592C14.6442 12.4655 14.5791 12.2752 14.4519 12.1287Z" fill="black"/>
</svg>
