<svg width="16" height="16" viewBox="0 0 16 16" fill="none" xmlns="http://www.w3.org/2000/svg">
<path fill-rule="evenodd" clip-rule="evenodd" d="M13.604 2.32533C12.1067 0.826667 10.116 0.000666667 7.99533 0C3.62533 0 0.0686667 3.556 0.0666667 7.928C0.066 9.32533 0.431333 10.6893 1.12533 11.892L0 16L4.20267 14.8973C5.36067 15.5293 6.66467 15.862 7.99133 15.8627H7.99467C12.364 15.8627 15.9213 12.306 15.9233 7.934C15.9247 5.816 15.1007 3.82333 13.604 2.32533ZM7.99533 14.5233H7.99267C6.81 14.5233 5.65067 14.2053 4.63867 13.6047L4.398 13.462L1.904 14.116L2.57 11.684L2.41333 11.4347C1.75333 10.3853 1.40533 9.17267 1.406 7.928C1.40733 4.29467 4.364 1.33867 7.99867 1.33867C9.75867 1.33867 11.4133 2.02533 12.6573 3.27067C13.9013 4.51667 14.586 6.172 14.5853 7.93267C14.5833 11.5673 11.6273 14.5233 7.99533 14.5233ZM11.61 9.588C11.412 9.48867 10.438 9.00933 10.256 8.94333C10.0747 8.87733 9.94267 8.844 9.81 9.042C9.67733 9.24 9.29867 9.68667 9.18267 9.81933C9.06733 9.95133 8.95133 9.968 8.75333 9.86867C8.55533 9.76933 7.91667 9.56067 7.16 8.88533C6.57133 8.36 6.17333 7.71133 6.058 7.51267C5.94267 7.314 6.046 7.20733 6.14467 7.10867C6.234 7.02 6.34267 6.87733 6.442 6.76133C6.542 6.64667 6.57467 6.564 6.64133 6.43133C6.70733 6.29933 6.67467 6.18333 6.62467 6.084C6.57467 5.98533 6.17867 5.01 6.014 4.61333C5.85333 4.22667 5.69 4.27933 5.568 4.27333C5.45267 4.26733 5.32067 4.26667 5.188 4.26667C5.056 4.26667 4.84133 4.316 4.66 4.51467C4.47867 4.71333 3.96667 5.19267 3.96667 6.16733C3.96667 7.14267 4.67667 8.08467 4.77533 8.21667C4.874 8.34867 6.172 10.35 8.15933 11.208C8.632 11.412 9.00133 11.534 9.28867 11.6253C9.76333 11.776 10.1953 11.7547 10.5367 11.704C10.9173 11.6473 11.7087 11.2247 11.874 10.762C12.0393 10.2993 12.0393 9.902 11.9893 9.82C11.94 9.73667 11.808 9.68733 11.61 9.588Z" fill="black"/>
</svg>
